<svg width="24" height="24" viewBox="0 0 24 24" fill="none" xmlns="http://www.w3.org/2000/svg">
<path d="M11 3H4C3.46957 3 2.96086 3.21071 2.58579 3.58579C2.21071 3.96086 2 4.46957 2 5V19C2 19.5304 2.21071 20.0391 2.58579 20.4142C2.96086 20.7893 3.46957 21 4 21H18C18.5304 21 19.0391 20.7893 19.4142 20.4142C19.7893 20.0391 20 19.5304 20 19V12" stroke="#5C7CFA" stroke-width="2" stroke-linecap="round" stroke-linejoin="round"/>
<path d="M18.5 1.62132C18.8978 1.2235 19.4374 1 20 1C20.5626 1 21.1022 1.2235 21.5 1.62132C21.8978 2.01915 22.1213 2.55871 22.1213 3.12132C22.1213 3.68393 21.8978 4.2235 21.5 4.62132L12 14.1213L8 15.1213L9 11.1213L18.5 1.62132Z" stroke="#5C7CFA" stroke-width="2" stroke-linecap="round" stroke-linejoin="round"/>
</svg>
